<svg width="38" height="43" viewBox="0 0 38 43" xmlns="http://www.w3.org/2000/svg">
<path d="M28.5 13.3912V9.42097C28.5 8.18379 28.2543 6.95873 27.7769 5.81572C27.2994 4.67272 26.5997 3.63416 25.7175 2.75934C24.8354 1.88452 23.7881 1.19058 22.6355 0.717128C21.4829 0.24368 20.2476 0 19 0C17.7524 0 16.5171 0.24368 15.3645 0.717128C14.2119 1.19058 13.1646 1.88452 12.2825 2.75934C11.4003 3.63416 10.7006 4.67272 10.2231 5.81572C9.74572 6.95873 9.5 8.18379 9.5 9.42097V18.8419C9.5 19.1989 9.64298 19.5412 9.8975 19.7936C10.152 20.046 10.4972 20.1878 10.8571 20.1878C11.2171 20.1878 11.5623 20.046 11.8168 19.7936C12.0713 19.5412 12.2143 19.1989 12.2143 18.8419V16.0829H23.0714V13.3912H12.2143V9.42097C12.2143 7.63626 12.9292 5.92464 14.2018 4.66266C15.4743 3.40068 17.2003 2.69171 19 2.69171C20.7997 2.69171 22.5257 3.40068 23.7982 4.66266C25.0708 5.92464 25.7857 7.63626 25.7857 9.42097V18.7746C25.7857 19.1316 25.9287 19.4739 26.1832 19.7263C26.4377 19.9787 26.7829 20.1205 27.1429 20.1205C27.5028 20.1205 27.848 19.9787 28.1025 19.7263C28.357 19.4739 28.5 19.1316 28.5 18.7746V16.0829H35.2857V40.3083H2.71429V16.0829H6.78571V13.3912H0V40.4294C0 41.1112 0.2731 41.765 0.759221 42.2471C1.24534 42.7292 1.90466 43 2.59214 43H35.4079C36.0953 43 36.7547 42.7292 37.2408 42.2471C37.7269 41.765 38 41.1112 38 40.4294V13.3912H28.5Z"/>
</svg>
