<svg width="28" height="32" viewBox="0 0 28 32" fill="black" xmlns="http://www.w3.org/2000/svg">
<path d="M21 9.95V7C21 6.08075 20.8189 5.17049 20.4672 4.32122C20.1154 3.47194 19.5998 2.70026 18.9497 2.05025C18.2997 1.40024 17.5281 0.884626 16.6788 0.532843C15.8295 0.18106 14.9193 0 14 0C13.0807 0 12.1705 0.18106 11.3212 0.532843C10.4719 0.884626 9.70026 1.40024 9.05025 2.05025C8.40024 2.70026 7.88463 3.47194 7.53284 4.32122C7.18106 5.17049 7 6.08075 7 7V14C7 14.2652 7.10536 14.5196 7.29289 14.7071C7.48043 14.8946 7.73478 15 8 15C8.26522 15 8.51957 14.8946 8.70711 14.7071C8.89464 14.5196 9 14.2652 9 14V11.95H17V9.95H9V7C9 5.67392 9.52678 4.40215 10.4645 3.46447C11.4021 2.52678 12.6739 2 14 2C15.3261 2 16.5979 2.52678 17.5355 3.46447C18.4732 4.40215 19 5.67392 19 7V13.95C19 14.2152 19.1054 14.4696 19.2929 14.6571C19.4804 14.8446 19.7348 14.95 20 14.95C20.2652 14.95 20.5196 14.8446 20.7071 14.6571C20.8946 14.4696 21 14.2152 21 13.95V11.95H26V29.95H2V11.95H5V9.95H0V30.04C0 30.5466 0.201231 31.0324 0.559426 31.3906C0.91762 31.7488 1.40344 31.95 1.91 31.95H26.09C26.5966 31.95 27.0824 31.7488 27.4406 31.3906C27.7988 31.0324 28 30.5466 28 30.04V9.95H21Z"/>
</svg>
