<svg width="38" height="32" viewBox="0 0 38 32" fill="none" stroke="black" xmlns="http://www.w3.org/2000/svg">
<path d="M28.6121 19.8222C25.9646 22.3072 22.6738 25.396 19.0911 29.564C15.5083 25.396 12.2176 22.3072 9.57011 19.8222C8.57569 18.8888 7.67204 18.0407 6.87777 17.2525C3.79618 14.1945 2.4187 12.1163 2.4187 9.14947C2.4187 5.23846 5.6632 2 9.75489 2C11.729 2 13.6497 2.94472 15.1903 4.05165C15.94 4.59026 16.5497 5.13147 16.9698 5.53636C17.1789 5.73781 17.3382 5.90285 17.4417 6.0133C17.4933 6.06845 17.5308 6.10976 17.5534 6.13493L17.5758 6.16021C17.5758 6.16025 17.5758 6.16021 17.5759 6.16025C17.5763 6.16076 17.5762 6.16062 17.5765 6.16099C17.577 6.16158 17.5773 6.1619 17.5775 6.16215C17.5776 6.16225 17.5783 6.16308 17.5784 6.16313C17.5784 6.16319 17.5784 6.1632 17.5784 6.16318L19.0911 7.92094L20.6038 6.16318L20.6039 6.16307L20.6047 6.16215C20.6049 6.1619 20.6051 6.16158 20.6057 6.16099C20.606 6.16062 20.6058 6.16076 20.6063 6.16025C20.6063 6.16021 20.6063 6.16025 20.6064 6.16021L20.6288 6.13493C20.6514 6.10976 20.6889 6.06845 20.7405 6.0133C20.8439 5.90285 21.0033 5.73781 21.2123 5.53636C21.6325 5.13147 22.2422 4.59026 22.9918 4.05165C24.5325 2.94472 26.4532 2 28.4273 2C32.519 2 35.7635 5.23846 35.7635 9.14947C35.7635 12.1163 34.386 14.1945 31.3044 17.2525C30.5101 18.0407 29.6065 18.8888 28.6121 19.8222Z" stroke-width="2"/>
</svg>
