<svg width="62" height="62" viewBox="0 0 62 62" fill="#ECE2E1" xmlns="http://www.w3.org/2000/svg">
<path d="M31 19.6875C28.9604 19.6875 26.9666 20.2923 25.2707 21.4255C23.5748 22.5586 22.253 24.1692 21.4725 26.0536C20.692 27.9379 20.4877 30.0114 20.8857 32.0119C21.2836 34.0123 22.2657 35.8498 23.708 37.292C25.1502 38.7343 26.9877 39.7164 28.9881 40.1143C30.9886 40.5123 33.0621 40.308 34.9464 39.5275C36.8308 38.747 38.4414 37.4252 39.5745 35.7293C40.7077 34.0334 41.3125 32.0396 41.3125 30C41.3094 27.2659 40.2219 24.6447 38.2886 22.7114C36.3553 20.7781 33.7341 19.6906 31 19.6875ZM31 38.4375C29.3312 38.4375 27.6999 37.9426 26.3124 37.0155C24.9248 36.0884 23.8434 34.7706 23.2048 33.2289C22.5662 31.6871 22.3991 29.9906 22.7246 28.3539C23.0502 26.7172 23.8538 25.2138 25.0338 24.0338C26.2138 22.8538 27.7172 22.0502 29.3539 21.7246C30.9906 21.3991 32.6871 21.5662 34.2289 22.2048C35.7706 22.8434 37.0884 23.9248 38.0155 25.3124C38.9426 26.6999 39.4375 28.3312 39.4375 30C39.435 32.237 38.5453 34.3817 36.9635 35.9635C35.3817 37.5453 33.237 38.435 31 38.4375ZM41.3125 7.5H20.6875C17.4563 7.50366 14.3585 8.78887 12.0737 11.0737C9.78887 13.3585 8.50366 16.4563 8.5 19.6875V40.3125C8.50366 43.5437 9.78887 46.6415 12.0737 48.9263C14.3585 51.2111 17.4563 52.4963 20.6875 52.5H41.3125C44.5437 52.4963 47.6415 51.2111 49.9263 48.9263C52.2111 46.6415 53.4963 43.5437 53.5 40.3125V19.6875C53.4963 16.4563 52.2111 13.3585 49.9263 11.0737C47.6415 8.78887 44.5437 7.50366 41.3125 7.5ZM51.625 40.3125C51.6219 43.0466 50.5344 45.6678 48.6011 47.6011C46.6678 49.5344 44.0466 50.6219 41.3125 50.625H20.6875C17.9534 50.6219 15.3322 49.5344 13.3989 47.6011C11.4656 45.6678 10.3781 43.0466 10.375 40.3125V19.6875C10.3781 16.9534 11.4656 14.3322 13.3989 12.3989C15.3322 10.4656 17.9534 9.3781 20.6875 9.375H41.3125C44.0466 9.3781 46.6678 10.4656 48.6011 12.3989C50.5344 14.3322 51.6219 16.9534 51.625 19.6875V40.3125ZM45.0625 17.8125C45.0625 18.1833 44.9525 18.5459 44.7465 18.8542C44.5405 19.1625 44.2476 19.4029 43.905 19.5448C43.5624 19.6867 43.1854 19.7238 42.8217 19.6515C42.458 19.5791 42.1239 19.4005 41.8617 19.1383C41.5994 18.8761 41.4209 18.542 41.3485 18.1783C41.2762 17.8146 41.3133 17.4376 41.4552 17.095C41.5971 16.7524 41.8375 16.4595 42.1458 16.2535C42.4541 16.0475 42.8167 15.9375 43.1875 15.9375C43.6846 15.9381 44.1611 16.1359 44.5126 16.4874C44.8641 16.8389 45.0619 17.3154 45.0625 17.8125Z"/>
</svg>
