<svg width="125" height="314" viewBox="0 0 125 314" fill="none" xmlns="http://www.w3.org/2000/svg">
<path d="M35 291.5C25.2175 284.497 15.2009 272.415 19 261C21.7382 252.773 31.1525 253.644 38 254.5C46 255.5 48.3114 258.283 56 261C61.5386 262.957 64.1279 263.652 70 263.5C75.5106 263.357 76.9759 261.768 82 259.5C86.9351 257.272 99 250.227 105.5 258.5C111 265.5 101.19 284.436 92 291.5C82.5986 298.727 74.8575 300.619 63 300.5C51.5149 300.384 44.3395 298.185 35 291.5Z" fill="black"/>
<rect x="35" y="93" width="56" height="18" fill="black"/>
<path fill-rule="evenodd" clip-rule="evenodd" d="M51 188V119V111H43V119V188V196H51V188ZM75 196H83V188V119V111H75V119V188V196Z" fill="black"/>
<path fill-rule="evenodd" clip-rule="evenodd" d="M51 190.056C21.9753 195.454 0 220.911 0 251.5C0 286.018 27.9822 314 62.5 314C97.0178 314 125 286.018 125 251.5C125 221.263 103.528 196.041 75 190.25V198.44C99.0749 204.09 117 225.702 117 251.5C117 281.6 92.5995 306 62.5 306C32.4005 306 8 281.6 8 251.5C8 225.346 26.4231 203.495 51 198.216V190.056Z" fill="black"/>
<path d="M50.5 3.125C57.4063 3.125 63 8.60938 63 15.375C63 8.60938 68.5937 3.125 75.5 3.125C82.4063 3.125 88 8.60938 88 15.375C88 25.5719 77.8938 29.1688 64.225 45.4C64.0745 45.5783 63.8869 45.7215 63.6754 45.8198C63.4638 45.9181 63.2333 45.969 63 45.969C62.7667 45.969 62.5362 45.9181 62.3246 45.8198C62.1131 45.7215 61.9255 45.5783 61.775 45.4C48.1062 29.1688 38 25.5719 38 15.375C38 8.60938 43.5937 3.125 50.5 3.125Z" fill="black"/>
<circle cx="71" cy="247" r="9" stroke="black" stroke-width="2"/>
<circle cx="48.5" cy="228.5" r="6.5" stroke="black" stroke-width="2"/>
<circle cx="63.5" cy="205.5" r="4.5" stroke="black" stroke-width="2"/>
</svg>
